<?xml version="1.0" standalone="no"?>
<!DOCTYPE svg PUBLIC "-//W3C//DTD SVG 20010904//EN"
 "http://www.w3.org/TR/2001/REC-SVG-20010904/DTD/svg10.dtd">
<svg version="1.0" xmlns="http://www.w3.org/2000/svg"
 width="500.000000pt" height="500.000000pt" viewBox="0 0 500.000000 500.000000"
 preserveAspectRatio="xMidYMid meet">

<g transform="translate(0.000000,500.000000) scale(0.100000,-0.100000)"
fill="#000000" stroke="none">
<path d="M2534 4372 c-18 -11 -34 -26 -36 -32 -2 -7 -22 -3 -58 14 -97 45
-216 27 -270 -41 -13 -17 -35 -28 -67 -34 -70 -13 -122 -52 -146 -109 -19 -46
-22 -48 -68 -53 -58 -7 -93 -25 -137 -68 -44 -43 -72 -99 -79 -157 -5 -40 -11
-51 -42 -73 -62 -44 -97 -149 -72 -219 10 -29 8 -36 -16 -64 -89 -106 -85
-254 11 -354 29 -31 31 -38 28 -91 -6 -94 37 -160 129 -200 42 -19 47 -25 53
-63 8 -51 59 -103 110 -112 20 -4 36 -11 36 -16 0 -19 62 -79 93 -89 30 -10
32 -14 34 -60 3 -59 25 -116 60 -153 23 -24 24 -29 13 -63 -15 -46 -8 -120 14
-144 16 -18 16 -21 -3 -52 -28 -46 -28 -117 0 -153 l21 -26 -21 -34 c-23 -37
-28 -101 -9 -140 14 -33 45 -53 94 -61 64 -11 74 -16 74 -34 0 -31 37 -67 92
-92 44 -19 70 -23 148 -23 85 -1 102 3 154 28 48 24 62 36 77 71 18 40 22 43
68 49 64 8 96 34 110 91 13 50 7 88 -19 124 -17 24 -17 26 3 53 28 38 29 117
0 156 l-20 27 20 27 c16 22 21 44 22 105 2 146 65 259 255 457 153 160 198
223 245 340 74 182 84 381 31 575 -115 413 -425 682 -816 707 -74 5 -89 3
-116 -14z m256 -64 c301 -72 519 -293 615 -623 54 -188 53 -328 -6 -510 -42
-133 -88 -203 -222 -339 -167 -169 -242 -275 -277 -391 l-12 -40 -90 -1 -91
-2 7 177 c9 220 21 332 47 441 23 96 87 236 125 271 l24 23 16 -22 c21 -31
113 -82 147 -82 90 0 147 102 100 180 -38 65 -153 91 -220 50 -34 -20 -37 -19
-46 20 -6 23 -2 27 41 42 103 37 156 145 99 202 -20 20 -36 26 -70 26 -80 0
-135 -58 -136 -146 -1 -30 -2 -31 -33 -25 -37 8 -38 10 -19 69 17 51 5 104
-33 145 -31 34 -101 38 -137 8 -21 -17 -24 -27 -24 -95 0 -71 2 -77 33 -109
l33 -34 -63 -48 -63 -47 -3 416 c-1 283 1 423 9 437 22 43 91 45 249 7z m-379
-4 l59 -27 0 -279 0 -279 -22 6 c-41 13 -53 33 -54 93 -2 83 -2 82 -24 82 -24
0 -40 -35 -40 -85 0 -44 16 -84 46 -115 21 -23 23 -30 14 -60 -21 -75 -10
-130 26 -130 22 0 24 4 24 53 0 31 6 61 15 73 13 17 14 7 15 -98 l0 -116 -59
5 c-91 8 -124 -7 -217 -103 -89 -93 -99 -96 -190 -69 l-49 14 0 68 c0 57 3 72
23 93 41 45 43 103 4 108 -18 3 -23 -3 -28 -27 -4 -16 -14 -37 -25 -46 -17
-16 -20 -15 -51 8 -42 33 -81 47 -97 37 -23 -14 -7 -43 39 -70 55 -32 86 -84
76 -125 -7 -28 -47 -73 -99 -110 -20 -14 -27 -25 -22 -37 11 -28 48 -21 94 19
l43 36 66 -22 c122 -39 176 -23 253 75 64 81 134 110 217 88 20 -6 22 -12 22
-76 l0 -69 -22 15 c-31 22 -76 20 -118 -5 -43 -26 -60 -47 -53 -65 7 -20 41
-17 70 6 51 40 93 18 93 -48 0 -36 -15 -49 -60 -54 -27 -2 -36 -8 -38 -25 -5
-34 51 -43 111 -18 16 7 18 1 15 -66 -3 -73 -3 -74 -32 -77 -22 -3 -37 5 -65
31 -20 19 -53 40 -73 46 -36 12 -64 38 -99 91 -14 21 -18 23 -33 11 -9 -7 -16
-21 -16 -31 0 -29 77 -107 118 -120 20 -7 53 -28 74 -47 30 -29 44 -36 82 -37
l46 -1 0 -97 0 -98 -49 0 c-86 0 -144 -56 -164 -158 l-12 -62 -40 0 c-32 0
-47 6 -67 28 -44 47 -67 162 -33 162 21 0 30 27 15 45 -8 9 -30 15 -59 15 -38
0 -52 5 -71 25 l-24 25 27 28 c44 46 33 115 -27 171 -21 20 -28 22 -41 11 -21
-17 -19 -27 11 -62 16 -20 24 -40 22 -57 -3 -22 -8 -26 -41 -29 -105 -9 -142
122 -56 203 29 29 34 30 119 29 71 0 90 2 95 14 12 31 -21 46 -103 47 -95 0
-151 -27 -189 -92 l-25 -43 -38 20 c-59 30 -97 96 -84 145 4 17 12 20 49 17
34 -3 46 0 51 12 8 21 -13 46 -37 46 -23 0 -24 -5 6 54 14 27 25 59 25 71 0
33 -38 77 -64 73 -26 -4 -34 -38 -11 -50 20 -12 14 -48 -18 -92 l-21 -29 -33
38 c-39 45 -57 104 -48 154 7 40 51 121 65 121 5 0 26 -11 46 -25 20 -14 50
-25 65 -25 24 0 29 4 29 23 0 18 -10 28 -39 42 -59 26 -83 57 -89 113 -3 36 1
59 16 89 22 42 53 64 61 42 9 -27 78 -92 123 -115 56 -29 125 -31 207 -8 72
20 106 9 127 -42 13 -31 14 -48 4 -102 -12 -68 -6 -87 26 -80 12 2 22 21 33
63 15 55 19 61 51 71 23 8 36 19 38 32 4 25 -26 36 -62 23 -14 -6 -26 -7 -26
-2 0 4 -12 25 -26 46 -25 38 -25 39 -9 82 9 24 26 48 36 54 27 14 21 53 -7 57
-26 4 -80 -57 -89 -100 -6 -23 -12 -28 -38 -28 -18 0 -50 -7 -72 -15 -133 -48
-262 23 -273 149 -5 58 11 101 57 149 55 60 136 76 212 41 31 -14 41 -14 54
-4 22 19 19 29 -20 51 -19 12 -35 27 -35 35 0 25 63 84 98 90 28 6 32 4 32
-15 0 -44 50 -111 82 -111 30 0 32 27 4 63 -45 58 -28 120 43 157 49 26 83 25
152 -6z m315 -595 c15 -29 14 -35 -1 -75 -9 -24 -20 -44 -25 -44 -21 0 -50 55
-50 95 0 48 5 55 36 55 16 0 29 -10 40 -31z m281 -55 c10 -26 -14 -62 -56 -84
-22 -11 -43 -20 -47 -20 -16 0 6 86 26 102 27 22 69 23 77 2z m-173 -166 c1
-2 10 -29 19 -60 l18 -57 -36 -47 c-122 -160 -166 -341 -181 -751 -5 -151 -9
-183 -21 -183 -22 0 -9 828 13 877 11 25 12 38 4 53 -15 29 -56 36 -80 15 -21
-19 -27 -60 -10 -70 12 -7 13 -148 3 -577 -5 -247 -9 -308 -20 -308 -11 0 -13
89 -13 498 l0 498 38 22 c20 11 63 43 96 70 l59 49 54 -13 c30 -7 56 -14 57
-16z m276 -113 c25 -23 26 -67 1 -89 -28 -25 -71 -13 -123 34 l-43 40 25 20
c31 26 109 23 140 -5z m-662 -801 c21 -6 22 -11 22 -102 l0 -95 -52 7 c-29 3
-65 6 -80 6 -26 0 -28 3 -28 40 0 83 37 134 110 149 3 0 15 -2 28 -5z m-120
-240 c95 -16 297 -15 381 2 24 5 31 3 31 -10 0 -9 1 -16 3 -16 2 0 30 5 62 11
61 11 74 5 75 -32 0 -22 -36 -34 -160 -53 -223 -34 -570 -7 -570 45 0 5 7 23
15 39 18 36 27 36 163 14z m-33 -210 c70 -13 130 -15 268 -11 100 3 177 1 177
-4 0 -5 27 -6 61 -2 47 5 63 3 70 -8 27 -43 4 -54 -166 -79 -152 -22 -230 -24
-355 -10 -138 16 -188 29 -195 50 -8 27 21 79 45 80 3 0 46 -7 95 -16z m76
-225 c83 -11 121 -10 289 6 188 18 193 18 206 0 17 -24 18 -59 1 -73 -21 -18
-232 -42 -370 -42 -74 0 -171 7 -222 16 -49 8 -96 16 -102 16 -21 2 -25 35 -8
69 19 35 6 35 206 8z"/>
<path d="M2343 4138 c-4 -7 -8 -35 -8 -61 0 -39 -5 -53 -24 -68 -34 -28 -69
-34 -120 -20 -37 10 -47 9 -59 -3 -20 -20 -3 -41 45 -57 100 -33 208 29 219
127 7 58 -30 116 -53 82z"/>
<path d="M2022 3983 c-5 -10 -12 -30 -16 -45 -13 -57 -85 -56 -118 3 -15 26
-20 28 -38 19 -24 -13 -25 -22 -6 -59 22 -41 59 -61 112 -61 39 0 51 5 81 35
30 30 34 39 31 77 -3 47 -29 64 -46 31z"/>
<path d="M2097 2853 c-14 -13 -6 -31 33 -75 50 -57 107 -82 170 -73 57 8 73
17 68 41 -3 16 -11 19 -55 16 -65 -4 -113 16 -148 62 -25 33 -53 45 -68 29z"/>
<path d="M3374 1326 c-17 -13 -19 -28 -19 -173 0 -186 12 -229 83 -305 73 -78
140 -83 223 -17 33 26 43 29 50 18 5 -8 9 -21 9 -29 0 -23 38 -80 53 -80 8 0
22 9 31 19 16 17 16 28 5 123 -7 64 -9 154 -5 238 7 158 1 194 -36 198 -38 5
-50 -20 -64 -132 -7 -57 -17 -122 -23 -144 -14 -51 -70 -132 -104 -152 -25
-14 -28 -13 -61 19 -60 58 -69 89 -75 255 -5 136 -8 150 -27 162 -17 12 -23
12 -40 0z"/>
<path d="M926 1299 c-105 -56 -166 -163 -166 -292 1 -239 231 -346 383 -178
41 46 48 84 18 101 -30 15 -38 13 -72 -24 -17 -19 -49 -42 -70 -50 -34 -14
-44 -14 -72 -2 -122 50 -127 238 -10 335 52 43 85 41 112 -5 17 -28 26 -35 48
-32 14 2 30 10 36 19 16 25 -2 89 -33 121 -24 24 -36 28 -82 28 -33 -1 -67 -8
-92 -21z"/>
<path d="M2990 1295 c-7 -8 -15 -46 -18 -84 -4 -67 -6 -69 -33 -75 -56 -11
-61 -96 -6 -96 40 0 49 -16 63 -103 24 -151 60 -207 132 -207 39 0 97 32 113
62 15 27 3 65 -21 73 -13 4 -34 -2 -56 -16 -20 -12 -39 -18 -44 -13 -8 8 -40
170 -40 202 0 8 16 12 44 12 51 0 76 19 76 56 0 28 -31 44 -84 44 l-33 0 -6
66 c-4 37 -12 73 -18 80 -15 19 -53 18 -69 -1z"/>
<path d="M2688 1265 c-9 -19 -8 -29 6 -50 18 -28 28 -30 57 -15 22 12 26 59 7
78 -21 21 -57 14 -70 -13z"/>
<path d="M4012 1234 c-43 -22 -82 -89 -82 -141 0 -48 23 -76 107 -129 64 -40
103 -73 103 -86 0 -5 -11 -13 -23 -19 -20 -9 -35 -5 -85 20 -64 32 -85 32
-103 -1 -29 -55 108 -140 199 -123 19 4 52 23 75 44 34 32 41 45 40 74 -2 56
-32 95 -121 154 -46 30 -86 61 -88 68 -8 20 15 57 34 53 9 -2 27 -19 40 -38
13 -19 30 -39 38 -43 21 -12 64 18 64 44 0 25 -32 89 -56 111 -29 25 -103 32
-142 12z"/>
<path d="M1845 1192 c-81 -50 -134 -159 -120 -249 5 -33 17 -56 44 -85 49 -53
104 -61 174 -25 44 23 47 23 47 5 0 -63 -45 -108 -122 -122 -49 -9 -66 -37
-43 -72 39 -61 187 -6 238 89 20 39 22 55 22 217 0 121 -4 182 -13 197 -32 57
-164 83 -227 45z m117 -121 c-1 -18 -12 -58 -25 -89 -17 -42 -29 -58 -50 -65
-45 -15 -60 6 -55 75 3 47 10 64 33 88 24 25 37 30 65 28 33 -3 35 -5 32 -37z"/>
<path d="M1383 1170 c-68 -41 -111 -151 -100 -257 14 -132 126 -200 237 -143
59 30 79 78 91 213 l9 112 -32 28 c-33 28 -124 67 -156 67 -9 0 -31 -9 -49
-20z m102 -114 c18 -27 30 -113 21 -149 -9 -36 -33 -57 -66 -57 -22 0 -33 7
-45 30 -35 68 -2 200 50 200 15 0 31 -9 40 -24z"/>
<path d="M2199 1174 c-10 -13 -10 -24 0 -57 6 -23 19 -85 28 -137 27 -162 29
-170 63 -170 39 0 53 24 79 140 12 52 25 101 30 109 17 27 39 2 56 -66 9 -37
24 -87 32 -111 14 -40 18 -43 47 -40 l31 3 -1 80 c-2 100 -31 181 -80 224 -49
44 -94 40 -151 -12 -13 -11 -24 -19 -26 -16 -2 2 -14 19 -26 37 -25 35 -60 43
-82 16z"/>
<path d="M2684 1095 c-15 -23 -15 -34 -4 -103 18 -113 32 -142 69 -142 25 0
32 5 37 26 8 33 -11 195 -26 224 -15 29 -56 26 -76 -5z"/>
</g>
</svg>
